<svg xmlns="http://www.w3.org/2000/svg" viewBox="0 0 129.83 128.99"><g data-name="Layer 2"><g data-name="Layer 1"><path d="M111.19 19.31a12.94 12.94 0 00-7.11-4.44C86.82 10.79 66.26 8.78 49.74 1.21a13.64 13.64 0 00-18.25 7.36C25 25.14 17.13 40 4 53.13A13.11 13.11 0 00.31 65.3c5 22.23 7.5 35.85 17.5 56.44 3.55 7.28 13.07 9.53 19.86 4.66 27.71-19.85 58.84-30.63 86.55-50.48a13.12 13.12 0 005.25-13.71c-3.66-15.21-8.36-30.73-18.28-42.9zm-37.31 49c-8.48 7.86-21.75 7.66-29.63-.44a20.14 20.14 0 011.1-28.92c8.49-7.87 21.76-7.66 29.64.44a20.13 20.13 0 01-1.11 28.89z" fill="#ffe0cf" opacity=".51"/><path d="M112.23 105.83H7.4a1.5 1.5 0 01-1.5-1.5V24.18a1.5 1.5 0 013 0v78.65h103.33a1.5 1.5 0 010 3z"/><path d="M119 86.6l-30.72-17a28 28 0 002.86-14.05h.21a1.25 1.25 0 00.25-.09 1.2 1.2 0 00.27-.16l.08-.07a1.59 1.59 0 00.13-.13l15.52-19.46a1.5 1.5 0 10-2.34-1.88l-14.5 18.09-.16-.14a27.5 27.5 0 00-1.6-5.33 27.9 27.9 0 00-52.17 19.83L21.57 85.52a1.5 1.5 0 00.24 2.11 1.48 1.48 0 00.93.32 1.5 1.5 0 001.18-.57l14.22-18a27.89 27.89 0 0048.63 2.77l30.73 17.08a1.57 1.57 0 00.72.18 1.5 1.5 0 00.78-2.81zM53.57 34.25a24.7 24.7 0 019.63-2 25 25 0 0123 15.24c.06.14.1.28.16.41l-2-1.76a1.48 1.48 0 00-1.1-.37 1.52 1.52 0 00-1 .52l-19.62 23-16.83-12.08a1.51 1.51 0 00-2.06.28l-4.65 5.86a25 25 0 0114.47-29.1zm19.32 45.91a24.91 24.91 0 01-32.61-13.3l-.05-.11.1-.12 4.88-6.15L62 72.6a1.54 1.54 0 00.88.29 1.47 1.47 0 001.12-.53l19.53-22.91 4.3 3.81a25 25 0 01-14.94 26.9z"/></g></g></svg>