<svg xmlns="http://www.w3.org/2000/svg" viewBox="0 0 148.12 140.65"><g data-name="Layer 2"><g data-name="Layer 1"><path d="M83.91 14.93H55.17a3 3 0 00-2.94 2.95v6.53H39A5.64 5.64 0 0033.32 30v87.71a1.09 1.09 0 000 .18c-5.36-4.71-10.95-9.17-16.85-13.45A27.56 27.56 0 015.36 84.88C3.9 70.29 2.09 55.75.22 41.21a27.66 27.66 0 0115.4-28.38A256.75 256.75 0 0143.27 1.54a27.61 27.61 0 0124.58 3.22q7.94 5.36 16.06 10.17zm64.2 49.23A211.79 211.79 0 01143.4 101a27.43 27.43 0 01-16.61 19.64q-24.67 9.93-49.79 18.51a27.57 27.57 0 01-28.95-7c-2.86-3-5.76-5.91-8.74-8.72h69.31a5.64 5.64 0 005.64-5.65v-87q7.93 3.57 16.13 6.73a27.61 27.61 0 0117.72 26.65z" opacity=".5" fill="#ffe0cf"/><path d="M103.81 19.33H92.56v-5a4.45 4.45 0 00-4.44-4.45H50.33a4.45 4.45 0 00-4.44 4.45v5H34.13A7.15 7.15 0 0027 26.46v87.71a2.71 2.71 0 000 .29 7.11 7.11 0 007.14 6.86h69.68a7.16 7.16 0 007.14-7.15V26.46a7.15 7.15 0 00-7.15-7.13zm-54.92-5a1.44 1.44 0 011.44-1.45h37.79a1.45 1.45 0 011.44 1.45v11.75a1.45 1.45 0 01-1.44 1.46H75.75a1.5 1.5 0 00-1.49 1.67v.34c0 2.36-1.7 3.55-5.06 3.55s-5-1.19-5-3.55v-.42a1.06 1.06 0 000-.31 1.5 1.5 0 00-.39-.81 1.49 1.49 0 00-1.09-.47H50.33a1.44 1.44 0 01-1.44-1.46V14.3zM108 114.17a4.15 4.15 0 01-4.14 4.15H34.13a4.11 4.11 0 01-4.14-4V26.46a4.14 4.14 0 014.15-4.13h11.75v3.75a4.45 4.45 0 004.44 4.46h10.9c.45 3.5 3.37 5.56 8 5.56s7.54-2.06 8-5.56h10.9a4.45 4.45 0 004.44-4.46v-3.75h11.25a4.14 4.14 0 014.18 4.13z"/><path d="M58.6 68.25H42.73a1.5 1.5 0 01-1.5-1.5V50.87a1.5 1.5 0 011.5-1.5H58.6a1.5 1.5 0 011.5 1.5v15.88a1.5 1.5 0 01-1.5 1.5zm-14.37-3H57.1V52.37H44.23zm51.85-4.94H69a1.5 1.5 0 010-3h27.08a1.5 1.5 0 010 3zM58.6 101.79H42.73a1.5 1.5 0 01-1.5-1.5V84.42a1.5 1.5 0 011.5-1.5H58.6a1.5 1.5 0 011.5 1.5v15.87a1.5 1.5 0 01-1.5 1.5zm-14.37-3H57.1V85.92H44.23zm51.85-4.94H69a1.5 1.5 0 010-3h27.08a1.5 1.5 0 110 3z"/></g></g></svg>